<?xml version="1.0" standalone="no"?>
<!DOCTYPE svg PUBLIC "-//W3C//DTD SVG 20010904//EN"
 "http://www.w3.org/TR/2001/REC-SVG-20010904/DTD/svg10.dtd">
<svg version="1.0" xmlns="http://www.w3.org/2000/svg"
 width="512.000000pt" height="512.000000pt" viewBox="0 0 512.000000 512.000000"
 preserveAspectRatio="xMidYMid meet">

<g transform="translate(0.000000,512.000000) scale(0.100000,-0.100000)"
fill="green" stroke="none">
<path d="M2180 4729 c-456 -26 -947 -107 -1395 -228 -76 -21 -115 -37 -127
-52 -17 -20 -18 -75 -18 -829 0 -824 3 -910 41 -1133 72 -430 245 -837 474
-1117 266 -326 603 -615 975 -837 154 -91 399 -213 430 -213 31 0 276 122 430
213 372 222 709 511 975 837 237 290 402 687 483 1160 l26 155 3 871 c4 826 3
872 -14 893 -19 24 -121 54 -383 115 -612 143 -1277 200 -1900 165z m710 -159
c440 -25 858 -88 1265 -190 87 -22 160 -40 162 -40 8 0 2 -1510 -7 -1603 -50
-523 -220 -964 -505 -1307 -297 -356 -718 -685 -1142 -891 l-103 -50 -102 50
c-424 206 -851 539 -1143 891 -285 344 -455 784 -505 1307 -9 100 -15 1603 -6
1603 2 0 64 15 137 34 423 109 873 175 1349 199 139 8 441 6 600 -3z"/>
<path d="M2155 4409 c-429 -28 -1113 -145 -1172 -201 l-24 -22 4 -751 c3 -717
4 -755 25 -871 76 -425 221 -765 436 -1019 150 -178 378 -394 561 -532 186
-140 526 -343 575 -343 49 0 391 204 575 343 284 215 587 533 717 752 132 222
221 479 280 806 21 119 22 153 25 869 l4 745 -24 23 c-63 59 -753 174 -1207
202 -191 12 -587 11 -775 -1z m628 -159 c401 -17 791 -66 1125 -142 l92 -21 0
-586 c0 -322 -5 -640 -10 -706 -40 -470 -189 -871 -430 -1155 -196 -232 -449
-455 -705 -623 -106 -69 -279 -167 -294 -167 -15 0 -236 126 -319 182 -319
214 -641 522 -799 765 -112 172 -214 423 -263 648 -52 242 -53 259 -57 971
l-4 670 93 22 c208 47 540 99 793 123 100 9 226 16 515 27 19 1 138 -3 263 -8z"/>
<path d="M2913 2806 l-531 -533 -254 254 -253 253 -58 -58 -57 -58 298 -297
c253 -253 302 -297 327 -297 33 0 134 97 787 763 l391 398 -53 54 c-30 30 -57
55 -61 55 -3 0 -245 -240 -536 -534z"/>
</g>
</svg>
